<?xml version="1.0" encoding="utf-8" standalone="no"?>
<!DOCTYPE svg PUBLIC "-//W3C//DTD SVG 1.1//EN"
  "http://www.w3.org/Graphics/SVG/1.1/DTD/svg11.dtd">
<!-- Created with matplotlib (https://matplotlib.org/) -->
<svg height="576pt" version="1.1" viewBox="0 0 1440 576" width="1440pt" xmlns="http://www.w3.org/2000/svg" xmlns:xlink="http://www.w3.org/1999/xlink">
 <metadata>
  <rdf:RDF xmlns:cc="http://creativecommons.org/ns#" xmlns:dc="http://purl.org/dc/elements/1.1/" xmlns:rdf="http://www.w3.org/1999/02/22-rdf-syntax-ns#">
   <cc:Work>
    <dc:type rdf:resource="http://purl.org/dc/dcmitype/StillImage"/>
    <dc:date>2021-05-27T18:15:56.942560</dc:date>
    <dc:format>image/svg+xml</dc:format>
    <dc:creator>
     <cc:Agent>
      <dc:title>Matplotlib v3.3.2, https://matplotlib.org/</dc:title>
     </cc:Agent>
    </dc:creator>
   </cc:Work>
  </rdf:RDF>
 </metadata>
 <defs>
  <style type="text/css">*{stroke-linecap:butt;stroke-linejoin:round;}</style>
 </defs>
 <g id="figure_1">
  <g id="patch_1">
   <path d="M 0 576 
L 1440 576 
L 1440 0 
L 0 0 
z
" style="fill:#ffffff;"/>
  </g>
  <g id="axes_1">
   <g id="patch_2">
    <path d="M 180 512.64 
L 817.714286 512.64 
L 817.714286 69.12 
L 180 69.12 
z
" style="fill:#eaeaf2;"/>
   </g>
   <g id="matplotlib.axis_1">
    <g id="xtick_1">
     <g id="line2d_1">
      <path clip-path="url(#p4eb4327ef0)" d="M 208.987013 512.64 
L 208.987013 69.12 
" style="fill:none;stroke:#ffffff;stroke-linecap:round;stroke-width:0.8;"/>
     </g>
     <g id="text_1">
      <!-- 0 -->
      <g style="fill:#262626;" transform="translate(205.805763 527.238438)scale(0.1 -0.1)">
       <defs>
        <path d="M 31.78125 66.40625 
Q 24.171875 66.40625 20.328125 58.90625 
Q 16.5 51.421875 16.5 36.375 
Q 16.5 21.390625 20.328125 13.890625 
Q 24.171875 6.390625 31.78125 6.390625 
Q 39.453125 6.390625 43.28125 13.890625 
Q 47.125 21.390625 47.125 36.375 
Q 47.125 51.421875 43.28125 58.90625 
Q 39.453125 66.40625 31.78125 66.40625 
z
M 31.78125 74.21875 
Q 44.046875 74.21875 50.515625 64.515625 
Q 56.984375 54.828125 56.984375 36.375 
Q 56.984375 17.96875 50.515625 8.265625 
Q 44.046875 -1.421875 31.78125 -1.421875 
Q 19.53125 -1.421875 13.0625 8.265625 
Q 6.59375 17.96875 6.59375 36.375 
Q 6.59375 54.828125 13.0625 64.515625 
Q 19.53125 74.21875 31.78125 74.21875 
z
" id="DejaVuSans-48"/>
       </defs>
       <use xlink:href="#DejaVuSans-48"/>
      </g>
     </g>
    </g>
    <g id="xtick_2">
     <g id="line2d_2">
      <path clip-path="url(#p4eb4327ef0)" d="M 327.301352 512.64 
L 327.301352 69.12 
" style="fill:none;stroke:#ffffff;stroke-linecap:round;stroke-width:0.8;"/>
     </g>
     <g id="text_2">
      <!-- 20 -->
      <g style="fill:#262626;" transform="translate(320.938852 527.238438)scale(0.1 -0.1)">
       <defs>
        <path d="M 19.1875 8.296875 
L 53.609375 8.296875 
L 53.609375 0 
L 7.328125 0 
L 7.328125 8.296875 
Q 12.9375 14.109375 22.625 23.890625 
Q 32.328125 33.6875 34.8125 36.53125 
Q 39.546875 41.84375 41.421875 45.53125 
Q 43.3125 49.21875 43.3125 52.78125 
Q 43.3125 58.59375 39.234375 62.25 
Q 35.15625 65.921875 28.609375 65.921875 
Q 23.96875 65.921875 18.8125 64.3125 
Q 13.671875 62.703125 7.8125 59.421875 
L 7.8125 69.390625 
Q 13.765625 71.78125 18.9375 73 
Q 24.125 74.21875 28.421875 74.21875 
Q 39.75 74.21875 46.484375 68.546875 
Q 53.21875 62.890625 53.21875 53.421875 
Q 53.21875 48.921875 51.53125 44.890625 
Q 49.859375 40.875 45.40625 35.40625 
Q 44.1875 33.984375 37.640625 27.21875 
Q 31.109375 20.453125 19.1875 8.296875 
z
" id="DejaVuSans-50"/>
       </defs>
       <use xlink:href="#DejaVuSans-50"/>
       <use x="63.623047" xlink:href="#DejaVuSans-48"/>
      </g>
     </g>
    </g>
    <g id="xtick_3">
     <g id="line2d_3">
      <path clip-path="url(#p4eb4327ef0)" d="M 445.61569 512.64 
L 445.61569 69.12 
" style="fill:none;stroke:#ffffff;stroke-linecap:round;stroke-width:0.8;"/>
     </g>
     <g id="text_3">
      <!-- 40 -->
      <g style="fill:#262626;" transform="translate(439.25319 527.238438)scale(0.1 -0.1)">
       <defs>
        <path d="M 37.796875 64.3125 
L 12.890625 25.390625 
L 37.796875 25.390625 
z
M 35.203125 72.90625 
L 47.609375 72.90625 
L 47.609375 25.390625 
L 58.015625 25.390625 
L 58.015625 17.1875 
L 47.609375 17.1875 
L 47.609375 0 
L 37.796875 0 
L 37.796875 17.1875 
L 4.890625 17.1875 
L 4.890625 26.703125 
z
" id="DejaVuSans-52"/>
       </defs>
       <use xlink:href="#DejaVuSans-52"/>
       <use x="63.623047" xlink:href="#DejaVuSans-48"/>
      </g>
     </g>
    </g>
    <g id="xtick_4">
     <g id="line2d_4">
      <path clip-path="url(#p4eb4327ef0)" d="M 563.930029 512.64 
L 563.930029 69.12 
" style="fill:none;stroke:#ffffff;stroke-linecap:round;stroke-width:0.8;"/>
     </g>
     <g id="text_4">
      <!-- 60 -->
      <g style="fill:#262626;" transform="translate(557.567529 527.238438)scale(0.1 -0.1)">
       <defs>
        <path d="M 33.015625 40.375 
Q 26.375 40.375 22.484375 35.828125 
Q 18.609375 31.296875 18.609375 23.390625 
Q 18.609375 15.53125 22.484375 10.953125 
Q 26.375 6.390625 33.015625 6.390625 
Q 39.65625 6.390625 43.53125 10.953125 
Q 47.40625 15.53125 47.40625 23.390625 
Q 47.40625 31.296875 43.53125 35.828125 
Q 39.65625 40.375 33.015625 40.375 
z
M 52.59375 71.296875 
L 52.59375 62.3125 
Q 48.875 64.0625 45.09375 64.984375 
Q 41.3125 65.921875 37.59375 65.921875 
Q 27.828125 65.921875 22.671875 59.328125 
Q 17.53125 52.734375 16.796875 39.40625 
Q 19.671875 43.65625 24.015625 45.921875 
Q 28.375 48.1875 33.59375 48.1875 
Q 44.578125 48.1875 50.953125 41.515625 
Q 57.328125 34.859375 57.328125 23.390625 
Q 57.328125 12.15625 50.6875 5.359375 
Q 44.046875 -1.421875 33.015625 -1.421875 
Q 20.359375 -1.421875 13.671875 8.265625 
Q 6.984375 17.96875 6.984375 36.375 
Q 6.984375 53.65625 15.1875 63.9375 
Q 23.390625 74.21875 37.203125 74.21875 
Q 40.921875 74.21875 44.703125 73.484375 
Q 48.484375 72.75 52.59375 71.296875 
z
" id="DejaVuSans-54"/>
       </defs>
       <use xlink:href="#DejaVuSans-54"/>
       <use x="63.623047" xlink:href="#DejaVuSans-48"/>
      </g>
     </g>
    </g>
    <g id="xtick_5">
     <g id="line2d_5">
      <path clip-path="url(#p4eb4327ef0)" d="M 682.244368 512.64 
L 682.244368 69.12 
" style="fill:none;stroke:#ffffff;stroke-linecap:round;stroke-width:0.8;"/>
     </g>
     <g id="text_5">
      <!-- 80 -->
      <g style="fill:#262626;" transform="translate(675.881868 527.238438)scale(0.1 -0.1)">
       <defs>
        <path d="M 31.78125 34.625 
Q 24.75 34.625 20.71875 30.859375 
Q 16.703125 27.09375 16.703125 20.515625 
Q 16.703125 13.921875 20.71875 10.15625 
Q 24.75 6.390625 31.78125 6.390625 
Q 38.8125 6.390625 42.859375 10.171875 
Q 46.921875 13.96875 46.921875 20.515625 
Q 46.921875 27.09375 42.890625 30.859375 
Q 38.875 34.625 31.78125 34.625 
z
M 21.921875 38.8125 
Q 15.578125 40.375 12.03125 44.71875 
Q 8.5 49.078125 8.5 55.328125 
Q 8.5 64.0625 14.71875 69.140625 
Q 20.953125 74.21875 31.78125 74.21875 
Q 42.671875 74.21875 48.875 69.140625 
Q 55.078125 64.0625 55.078125 55.328125 
Q 55.078125 49.078125 51.53125 44.71875 
Q 48 40.375 41.703125 38.8125 
Q 48.828125 37.15625 52.796875 32.3125 
Q 56.78125 27.484375 56.78125 20.515625 
Q 56.78125 9.90625 50.3125 4.234375 
Q 43.84375 -1.421875 31.78125 -1.421875 
Q 19.734375 -1.421875 13.25 4.234375 
Q 6.78125 9.90625 6.78125 20.515625 
Q 6.78125 27.484375 10.78125 32.3125 
Q 14.796875 37.15625 21.921875 38.8125 
z
M 18.3125 54.390625 
Q 18.3125 48.734375 21.84375 45.5625 
Q 25.390625 42.390625 31.78125 42.390625 
Q 38.140625 42.390625 41.71875 45.5625 
Q 45.3125 48.734375 45.3125 54.390625 
Q 45.3125 60.0625 41.71875 63.234375 
Q 38.140625 66.40625 31.78125 66.40625 
Q 25.390625 66.40625 21.84375 63.234375 
Q 18.3125 60.0625 18.3125 54.390625 
z
" id="DejaVuSans-56"/>
       </defs>
       <use xlink:href="#DejaVuSans-56"/>
       <use x="63.623047" xlink:href="#DejaVuSans-48"/>
      </g>
     </g>
    </g>
    <g id="xtick_6">
     <g id="line2d_6">
      <path clip-path="url(#p4eb4327ef0)" d="M 800.558707 512.64 
L 800.558707 69.12 
" style="fill:none;stroke:#ffffff;stroke-linecap:round;stroke-width:0.8;"/>
     </g>
     <g id="text_6">
      <!-- 100 -->
      <g style="fill:#262626;" transform="translate(791.014957 527.238438)scale(0.1 -0.1)">
       <defs>
        <path d="M 12.40625 8.296875 
L 28.515625 8.296875 
L 28.515625 63.921875 
L 10.984375 60.40625 
L 10.984375 69.390625 
L 28.421875 72.90625 
L 38.28125 72.90625 
L 38.28125 8.296875 
L 54.390625 8.296875 
L 54.390625 0 
L 12.40625 0 
z
" id="DejaVuSans-49"/>
       </defs>
       <use xlink:href="#DejaVuSans-49"/>
       <use x="63.623047" xlink:href="#DejaVuSans-48"/>
       <use x="127.246094" xlink:href="#DejaVuSans-48"/>
      </g>
     </g>
    </g>
    <g id="text_7">
     <!-- Epochs -->
     <g style="fill:#262626;" transform="translate(475.56683 543.196094)scale(0.13 -0.13)">
      <defs>
       <path d="M 9.8125 72.90625 
L 55.90625 72.90625 
L 55.90625 64.59375 
L 19.671875 64.59375 
L 19.671875 43.015625 
L 54.390625 43.015625 
L 54.390625 34.71875 
L 19.671875 34.71875 
L 19.671875 8.296875 
L 56.78125 8.296875 
L 56.78125 0 
L 9.8125 0 
z
" id="DejaVuSans-69"/>
       <path d="M 18.109375 8.203125 
L 18.109375 -20.796875 
L 9.078125 -20.796875 
L 9.078125 54.6875 
L 18.109375 54.6875 
L 18.109375 46.390625 
Q 20.953125 51.265625 25.265625 53.625 
Q 29.59375 56 35.59375 56 
Q 45.5625 56 51.78125 48.09375 
Q 58.015625 40.1875 58.015625 27.296875 
Q 58.015625 14.40625 51.78125 6.484375 
Q 45.5625 -1.421875 35.59375 -1.421875 
Q 29.59375 -1.421875 25.265625 0.953125 
Q 20.953125 3.328125 18.109375 8.203125 
z
M 48.6875 27.296875 
Q 48.6875 37.203125 44.609375 42.84375 
Q 40.53125 48.484375 33.40625 48.484375 
Q 26.265625 48.484375 22.1875 42.84375 
Q 18.109375 37.203125 18.109375 27.296875 
Q 18.109375 17.390625 22.1875 11.75 
Q 26.265625 6.109375 33.40625 6.109375 
Q 40.53125 6.109375 44.609375 11.75 
Q 48.6875 17.390625 48.6875 27.296875 
z
" id="DejaVuSans-112"/>
       <path d="M 30.609375 48.390625 
Q 23.390625 48.390625 19.1875 42.75 
Q 14.984375 37.109375 14.984375 27.296875 
Q 14.984375 17.484375 19.15625 11.84375 
Q 23.34375 6.203125 30.609375 6.203125 
Q 37.796875 6.203125 41.984375 11.859375 
Q 46.1875 17.53125 46.1875 27.296875 
Q 46.1875 37.015625 41.984375 42.703125 
Q 37.796875 48.390625 30.609375 48.390625 
z
M 30.609375 56 
Q 42.328125 56 49.015625 48.375 
Q 55.71875 40.765625 55.71875 27.296875 
Q 55.71875 13.875 49.015625 6.21875 
Q 42.328125 -1.421875 30.609375 -1.421875 
Q 18.84375 -1.421875 12.171875 6.21875 
Q 5.515625 13.875 5.515625 27.296875 
Q 5.515625 40.765625 12.171875 48.375 
Q 18.84375 56 30.609375 56 
z
" id="DejaVuSans-111"/>
       <path d="M 48.78125 52.59375 
L 48.78125 44.1875 
Q 44.96875 46.296875 41.140625 47.34375 
Q 37.3125 48.390625 33.40625 48.390625 
Q 24.65625 48.390625 19.8125 42.84375 
Q 14.984375 37.3125 14.984375 27.296875 
Q 14.984375 17.28125 19.8125 11.734375 
Q 24.65625 6.203125 33.40625 6.203125 
Q 37.3125 6.203125 41.140625 7.25 
Q 44.96875 8.296875 48.78125 10.40625 
L 48.78125 2.09375 
Q 45.015625 0.34375 40.984375 -0.53125 
Q 36.96875 -1.421875 32.421875 -1.421875 
Q 20.0625 -1.421875 12.78125 6.34375 
Q 5.515625 14.109375 5.515625 27.296875 
Q 5.515625 40.671875 12.859375 48.328125 
Q 20.21875 56 33.015625 56 
Q 37.15625 56 41.109375 55.140625 
Q 45.0625 54.296875 48.78125 52.59375 
z
" id="DejaVuSans-99"/>
       <path d="M 54.890625 33.015625 
L 54.890625 0 
L 45.90625 0 
L 45.90625 32.71875 
Q 45.90625 40.484375 42.875 44.328125 
Q 39.84375 48.1875 33.796875 48.1875 
Q 26.515625 48.1875 22.3125 43.546875 
Q 18.109375 38.921875 18.109375 30.90625 
L 18.109375 0 
L 9.078125 0 
L 9.078125 75.984375 
L 18.109375 75.984375 
L 18.109375 46.1875 
Q 21.34375 51.125 25.703125 53.5625 
Q 30.078125 56 35.796875 56 
Q 45.21875 56 50.046875 50.171875 
Q 54.890625 44.34375 54.890625 33.015625 
z
" id="DejaVuSans-104"/>
       <path d="M 44.28125 53.078125 
L 44.28125 44.578125 
Q 40.484375 46.53125 36.375 47.5 
Q 32.28125 48.484375 27.875 48.484375 
Q 21.1875 48.484375 17.84375 46.4375 
Q 14.5 44.390625 14.5 40.28125 
Q 14.5 37.15625 16.890625 35.375 
Q 19.28125 33.59375 26.515625 31.984375 
L 29.59375 31.296875 
Q 39.15625 29.25 43.1875 25.515625 
Q 47.21875 21.78125 47.21875 15.09375 
Q 47.21875 7.46875 41.1875 3.015625 
Q 35.15625 -1.421875 24.609375 -1.421875 
Q 20.21875 -1.421875 15.453125 -0.5625 
Q 10.6875 0.296875 5.421875 2 
L 5.421875 11.28125 
Q 10.40625 8.6875 15.234375 7.390625 
Q 20.0625 6.109375 24.8125 6.109375 
Q 31.15625 6.109375 34.5625 8.28125 
Q 37.984375 10.453125 37.984375 14.40625 
Q 37.984375 18.0625 35.515625 20.015625 
Q 33.0625 21.96875 24.703125 23.78125 
L 21.578125 24.515625 
Q 13.234375 26.265625 9.515625 29.90625 
Q 5.8125 33.546875 5.8125 39.890625 
Q 5.8125 47.609375 11.28125 51.796875 
Q 16.75 56 26.8125 56 
Q 31.78125 56 36.171875 55.265625 
Q 40.578125 54.546875 44.28125 53.078125 
z
" id="DejaVuSans-115"/>
      </defs>
      <use xlink:href="#DejaVuSans-69"/>
      <use x="63.183594" xlink:href="#DejaVuSans-112"/>
      <use x="126.660156" xlink:href="#DejaVuSans-111"/>
      <use x="187.841797" xlink:href="#DejaVuSans-99"/>
      <use x="242.822266" xlink:href="#DejaVuSans-104"/>
      <use x="306.201172" xlink:href="#DejaVuSans-115"/>
     </g>
    </g>
   </g>
   <g id="matplotlib.axis_2">
    <g id="ytick_1">
     <g id="line2d_7">
      <path clip-path="url(#p4eb4327ef0)" d="M 180 484.990428 
L 817.714286 484.990428 
" style="fill:none;stroke:#ffffff;stroke-linecap:round;stroke-width:0.8;"/>
     </g>
     <g id="text_8">
      <!-- 50 -->
      <g style="fill:#262626;" transform="translate(160.275 488.789646)scale(0.1 -0.1)">
       <defs>
        <path d="M 10.796875 72.90625 
L 49.515625 72.90625 
L 49.515625 64.59375 
L 19.828125 64.59375 
L 19.828125 46.734375 
Q 21.96875 47.46875 24.109375 47.828125 
Q 26.265625 48.1875 28.421875 48.1875 
Q 40.625 48.1875 47.75 41.5 
Q 54.890625 34.8125 54.890625 23.390625 
Q 54.890625 11.625 47.5625 5.09375 
Q 40.234375 -1.421875 26.90625 -1.421875 
Q 22.3125 -1.421875 17.546875 -0.640625 
Q 12.796875 0.140625 7.71875 1.703125 
L 7.71875 11.625 
Q 12.109375 9.234375 16.796875 8.0625 
Q 21.484375 6.890625 26.703125 6.890625 
Q 35.15625 6.890625 40.078125 11.328125 
Q 45.015625 15.765625 45.015625 23.390625 
Q 45.015625 31 40.078125 35.4375 
Q 35.15625 39.890625 26.703125 39.890625 
Q 22.75 39.890625 18.8125 39.015625 
Q 14.890625 38.140625 10.796875 36.28125 
z
" id="DejaVuSans-53"/>
       </defs>
       <use xlink:href="#DejaVuSans-53"/>
       <use x="63.623047" xlink:href="#DejaVuSans-48"/>
      </g>
     </g>
    </g>
    <g id="ytick_2">
     <g id="line2d_8">
      <path clip-path="url(#p4eb4327ef0)" d="M 180 402.008432 
L 817.714286 402.008432 
" style="fill:none;stroke:#ffffff;stroke-linecap:round;stroke-width:0.8;"/>
     </g>
     <g id="text_9">
      <!-- 60 -->
      <g style="fill:#262626;" transform="translate(160.275 405.80765)scale(0.1 -0.1)">
       <use xlink:href="#DejaVuSans-54"/>
       <use x="63.623047" xlink:href="#DejaVuSans-48"/>
      </g>
     </g>
    </g>
    <g id="ytick_3">
     <g id="line2d_9">
      <path clip-path="url(#p4eb4327ef0)" d="M 180 319.026435 
L 817.714286 319.026435 
" style="fill:none;stroke:#ffffff;stroke-linecap:round;stroke-width:0.8;"/>
     </g>
     <g id="text_10">
      <!-- 70 -->
      <g style="fill:#262626;" transform="translate(160.275 322.825654)scale(0.1 -0.1)">
       <defs>
        <path d="M 8.203125 72.90625 
L 55.078125 72.90625 
L 55.078125 68.703125 
L 28.609375 0 
L 18.3125 0 
L 43.21875 64.59375 
L 8.203125 64.59375 
z
" id="DejaVuSans-55"/>
       </defs>
       <use xlink:href="#DejaVuSans-55"/>
       <use x="63.623047" xlink:href="#DejaVuSans-48"/>
      </g>
     </g>
    </g>
    <g id="ytick_4">
     <g id="line2d_10">
      <path clip-path="url(#p4eb4327ef0)" d="M 180 236.044439 
L 817.714286 236.044439 
" style="fill:none;stroke:#ffffff;stroke-linecap:round;stroke-width:0.8;"/>
     </g>
     <g id="text_11">
      <!-- 80 -->
      <g style="fill:#262626;" transform="translate(160.275 239.843658)scale(0.1 -0.1)">
       <use xlink:href="#DejaVuSans-56"/>
       <use x="63.623047" xlink:href="#DejaVuSans-48"/>
      </g>
     </g>
    </g>
    <g id="ytick_5">
     <g id="line2d_11">
      <path clip-path="url(#p4eb4327ef0)" d="M 180 153.062443 
L 817.714286 153.062443 
" style="fill:none;stroke:#ffffff;stroke-linecap:round;stroke-width:0.8;"/>
     </g>
     <g id="text_12">
      <!-- 90 -->
      <g style="fill:#262626;" transform="translate(160.275 156.861662)scale(0.1 -0.1)">
       <defs>
        <path d="M 10.984375 1.515625 
L 10.984375 10.5 
Q 14.703125 8.734375 18.5 7.8125 
Q 22.3125 6.890625 25.984375 6.890625 
Q 35.75 6.890625 40.890625 13.453125 
Q 46.046875 20.015625 46.78125 33.40625 
Q 43.953125 29.203125 39.59375 26.953125 
Q 35.25 24.703125 29.984375 24.703125 
Q 19.046875 24.703125 12.671875 31.3125 
Q 6.296875 37.9375 6.296875 49.421875 
Q 6.296875 60.640625 12.9375 67.421875 
Q 19.578125 74.21875 30.609375 74.21875 
Q 43.265625 74.21875 49.921875 64.515625 
Q 56.59375 54.828125 56.59375 36.375 
Q 56.59375 19.140625 48.40625 8.859375 
Q 40.234375 -1.421875 26.421875 -1.421875 
Q 22.703125 -1.421875 18.890625 -0.6875 
Q 15.09375 0.046875 10.984375 1.515625 
z
M 30.609375 32.421875 
Q 37.25 32.421875 41.125 36.953125 
Q 45.015625 41.5 45.015625 49.421875 
Q 45.015625 57.28125 41.125 61.84375 
Q 37.25 66.40625 30.609375 66.40625 
Q 23.96875 66.40625 20.09375 61.84375 
Q 16.21875 57.28125 16.21875 49.421875 
Q 16.21875 41.5 20.09375 36.953125 
Q 23.96875 32.421875 30.609375 32.421875 
z
" id="DejaVuSans-57"/>
       </defs>
       <use xlink:href="#DejaVuSans-57"/>
       <use x="63.623047" xlink:href="#DejaVuSans-48"/>
      </g>
     </g>
    </g>
    <g id="ytick_6">
     <g id="line2d_12">
      <path clip-path="url(#p4eb4327ef0)" d="M 180 70.080447 
L 817.714286 70.080447 
" style="fill:none;stroke:#ffffff;stroke-linecap:round;stroke-width:0.8;"/>
     </g>
     <g id="text_13">
      <!-- 100 -->
      <g style="fill:#262626;" transform="translate(153.9125 73.879666)scale(0.1 -0.1)">
       <use xlink:href="#DejaVuSans-49"/>
       <use x="63.623047" xlink:href="#DejaVuSans-48"/>
       <use x="127.246094" xlink:href="#DejaVuSans-48"/>
      </g>
     </g>
    </g>
    <g id="text_14">
     <!-- Accuracy -->
     <g style="fill:#262626;" transform="translate(147.208906 320.556562)rotate(-90)scale(0.13 -0.13)">
      <defs>
       <path d="M 34.1875 63.1875 
L 20.796875 26.90625 
L 47.609375 26.90625 
z
M 28.609375 72.90625 
L 39.796875 72.90625 
L 67.578125 0 
L 57.328125 0 
L 50.6875 18.703125 
L 17.828125 18.703125 
L 11.1875 0 
L 0.78125 0 
z
" id="DejaVuSans-65"/>
       <path d="M 8.5 21.578125 
L 8.5 54.6875 
L 17.484375 54.6875 
L 17.484375 21.921875 
Q 17.484375 14.15625 20.5 10.265625 
Q 23.53125 6.390625 29.59375 6.390625 
Q 36.859375 6.390625 41.078125 11.03125 
Q 45.3125 15.671875 45.3125 23.6875 
L 45.3125 54.6875 
L 54.296875 54.6875 
L 54.296875 0 
L 45.3125 0 
L 45.3125 8.40625 
Q 42.046875 3.421875 37.71875 1 
Q 33.40625 -1.421875 27.6875 -1.421875 
Q 18.265625 -1.421875 13.375 4.4375 
Q 8.5 10.296875 8.5 21.578125 
z
M 31.109375 56 
z
" id="DejaVuSans-117"/>
       <path d="M 41.109375 46.296875 
Q 39.59375 47.171875 37.8125 47.578125 
Q 36.03125 48 33.890625 48 
Q 26.265625 48 22.1875 43.046875 
Q 18.109375 38.09375 18.109375 28.8125 
L 18.109375 0 
L 9.078125 0 
L 9.078125 54.6875 
L 18.109375 54.6875 
L 18.109375 46.1875 
Q 20.953125 51.171875 25.484375 53.578125 
Q 30.03125 56 36.53125 56 
Q 37.453125 56 38.578125 55.875 
Q 39.703125 55.765625 41.0625 55.515625 
z
" id="DejaVuSans-114"/>
       <path d="M 34.28125 27.484375 
Q 23.390625 27.484375 19.1875 25 
Q 14.984375 22.515625 14.984375 16.5 
Q 14.984375 11.71875 18.140625 8.90625 
Q 21.296875 6.109375 26.703125 6.109375 
Q 34.1875 6.109375 38.703125 11.40625 
Q 43.21875 16.703125 43.21875 25.484375 
L 43.21875 27.484375 
z
M 52.203125 31.203125 
L 52.203125 0 
L 43.21875 0 
L 43.21875 8.296875 
Q 40.140625 3.328125 35.546875 0.953125 
Q 30.953125 -1.421875 24.3125 -1.421875 
Q 15.921875 -1.421875 10.953125 3.296875 
Q 6 8.015625 6 15.921875 
Q 6 25.140625 12.171875 29.828125 
Q 18.359375 34.515625 30.609375 34.515625 
L 43.21875 34.515625 
L 43.21875 35.40625 
Q 43.21875 41.609375 39.140625 45 
Q 35.0625 48.390625 27.6875 48.390625 
Q 23 48.390625 18.546875 47.265625 
Q 14.109375 46.140625 10.015625 43.890625 
L 10.015625 52.203125 
Q 14.9375 54.109375 19.578125 55.046875 
Q 24.21875 56 28.609375 56 
Q 40.484375 56 46.34375 49.84375 
Q 52.203125 43.703125 52.203125 31.203125 
z
" id="DejaVuSans-97"/>
       <path d="M 32.171875 -5.078125 
Q 28.375 -14.84375 24.75 -17.8125 
Q 21.140625 -20.796875 15.09375 -20.796875 
L 7.90625 -20.796875 
L 7.90625 -13.28125 
L 13.1875 -13.28125 
Q 16.890625 -13.28125 18.9375 -11.515625 
Q 21 -9.765625 23.484375 -3.21875 
L 25.09375 0.875 
L 2.984375 54.6875 
L 12.5 54.6875 
L 29.59375 11.921875 
L 46.6875 54.6875 
L 56.203125 54.6875 
z
" id="DejaVuSans-121"/>
      </defs>
      <use xlink:href="#DejaVuSans-65"/>
      <use x="66.658203" xlink:href="#DejaVuSans-99"/>
      <use x="121.638672" xlink:href="#DejaVuSans-99"/>
      <use x="176.619141" xlink:href="#DejaVuSans-117"/>
      <use x="239.998047" xlink:href="#DejaVuSans-114"/>
      <use x="281.111328" xlink:href="#DejaVuSans-97"/>
      <use x="342.390625" xlink:href="#DejaVuSans-99"/>
      <use x="397.371094" xlink:href="#DejaVuSans-121"/>
     </g>
    </g>
   </g>
   <g id="PolyCollection_1">
    <defs>
     <path d="M 208.987013 -91.896684 
L 208.987013 -90.12246 
L 220.818447 -327.264877 
L 232.649881 -379.17476 
L 244.481315 -411.129795 
L 256.312748 -429.039122 
L 268.144182 -446.978142 
L 279.975616 -451.78997 
L 291.80705 -454.308779 
L 303.638484 -452.935113 
L 315.469918 -459.220131 
L 327.301352 -459.707336 
L 339.132786 -460.489015 
L 350.964219 -468.397493 
L 362.795653 -467.944334 
L 374.627087 -468.421237 
L 386.458521 -469.593521 
L 398.289955 -466.926232 
L 410.121389 -468.709174 
L 421.952823 -473.381462 
L 433.784257 -470.36573 
L 445.61569 -472.706453 
L 457.447124 -469.869565 
L 469.278558 -470.476788 
L 481.109992 -473.347389 
L 492.941426 -472.555417 
L 504.77286 -475.41054 
L 516.604294 -476.782038 
L 528.435728 -473.971755 
L 540.267161 -473.891186 
L 552.098595 -474.633434 
L 563.930029 -473.372158 
L 575.761463 -475.07733 
L 587.592897 -474.196773 
L 599.424331 -473.718183 
L 611.255765 -476.699334 
L 623.087199 -477.060055 
L 634.918632 -476.402642 
L 646.750066 -473.638688 
L 658.5815 -477.080197 
L 670.412934 -474.440411 
L 682.244368 -476.747445 
L 694.075802 -474.913041 
L 705.907236 -474.997985 
L 717.738669 -474.540199 
L 729.570103 -478.426327 
L 741.401537 -474.035868 
L 753.232971 -476.502069 
L 765.064405 -476.440766 
L 776.895839 -476.755606 
L 788.727273 -474.68235 
L 788.727273 -486.482422 
L 788.727273 -486.482422 
L 776.895839 -484.409166 
L 765.064405 -486.494295 
L 753.232971 -484.773344 
L 741.401537 -484.473453 
L 729.570103 -484.951281 
L 717.738669 -485.960702 
L 705.907236 -486.72 
L 694.075802 -485.255945 
L 682.244368 -485.302479 
L 670.412934 -485.175353 
L 658.5815 -486.076146 
L 646.750066 -483.211019 
L 634.918632 -484.208917 
L 623.087199 -484.547289 
L 611.255765 -484.244156 
L 599.424331 -483.574079 
L 587.592897 -483.870001 
L 575.761463 -485.091647 
L 563.930029 -484.694616 
L 552.098595 -483.433331 
L 540.267161 -484.175596 
L 528.435728 -485.090796 
L 516.604294 -483.386931 
L 504.77286 -483.983934 
L 492.941426 -482.966572 
L 481.109992 -481.178815 
L 469.278558 -478.738556 
L 457.447124 -481.226726 
L 445.61569 -482.594255 
L 433.784257 -481.726339 
L 421.952823 -480.702161 
L 410.121389 -480.838127 
L 398.289955 -480.076285 
L 386.458521 -477.298337 
L 374.627087 -477.806767 
L 362.795653 -477.287884 
L 350.964219 -476.724101 
L 339.132786 -474.564082 
L 327.301352 -474.018052 
L 315.469918 -472.403046 
L 303.638484 -471.938862 
L 291.80705 -471.892913 
L 279.975616 -468.99023 
L 268.144182 -461.520699 
L 256.312748 -453.458702 
L 244.481315 -442.379664 
L 232.649881 -419.01336 
L 220.818447 -352.867527 
L 208.987013 -91.896684 
z
" id="m614a4e031d" style="stroke:#edd1cb;stroke-opacity:0.2;"/>
    </defs>
    <g clip-path="url(#p4eb4327ef0)">
     <use style="fill:#edd1cb;fill-opacity:0.2;stroke:#edd1cb;stroke-opacity:0.2;" x="0" xlink:href="#m614a4e031d" y="576"/>
    </g>
   </g>
   <g id="PolyCollection_2">
    <defs>
     <path d="M 208.987013 -97.835295 
L 208.987013 -83.52 
L 220.818447 -300.607441 
L 232.649881 -375.856932 
L 244.481315 -398.768469 
L 256.312748 -411.588941 
L 268.144182 -429.452683 
L 279.975616 -435.502053 
L 291.80705 -438.289137 
L 303.638484 -443.55474 
L 315.469918 -445.921717 
L 327.301352 -442.650717 
L 339.132786 -445.538096 
L 350.964219 -444.83789 
L 362.795653 -450.595813 
L 374.627087 -456.44217 
L 386.458521 -452.452206 
L 398.289955 -452.900904 
L 410.121389 -455.772293 
L 421.952823 -454.437447 
L 433.784257 -456.738663 
L 445.61569 -452.167093 
L 457.447124 -457.308331 
L 469.278558 -461.302348 
L 481.109992 -461.936463 
L 492.941426 -462.487226 
L 504.77286 -460.680317 
L 516.604294 -457.285951 
L 528.435728 -461.945574 
L 540.267161 -457.886 
L 552.098595 -463.613722 
L 563.930029 -459.038146 
L 575.761463 -460.404162 
L 587.592897 -458.322206 
L 599.424331 -455.36128 
L 611.255765 -455.328847 
L 623.087199 -456.459789 
L 634.918632 -456.518242 
L 646.750066 -457.705261 
L 658.5815 -460.484515 
L 670.412934 -461.729515 
L 682.244368 -464.105525 
L 694.075802 -462.026374 
L 705.907236 -461.716007 
L 717.738669 -453.257967 
L 729.570103 -461.648399 
L 741.401537 -460.853814 
L 753.232971 -461.207435 
L 765.064405 -463.373067 
L 776.895839 -459.491456 
L 788.727273 -462.617588 
L 788.727273 -478.188924 
L 788.727273 -478.188924 
L 776.895839 -476.668068 
L 765.064405 -475.663164 
L 753.232971 -474.620166 
L 741.401537 -476.854708 
L 729.570103 -477.166576 
L 717.738669 -477.369424 
L 705.907236 -474.554157 
L 694.075802 -476.45666 
L 682.244368 -477.364858 
L 670.412934 -475.536443 
L 658.5815 -475.453726 
L 646.750066 -472.922138 
L 634.918632 -475.658148 
L 623.087199 -475.384669 
L 611.255765 -472.643126 
L 599.424331 -479.138604 
L 587.592897 -477.947967 
L 575.761463 -475.312806 
L 563.930029 -474.244687 
L 552.098595 -477.524738 
L 540.267161 -476.060662 
L 528.435728 -475.984238 
L 516.604294 -474.558507 
L 504.77286 -474.372771 
L 492.941426 -475.553228 
L 481.109992 -473.891129 
L 469.278558 -471.869819 
L 457.447124 -473.319068 
L 445.61569 -474.809095 
L 433.784257 -471.565241 
L 421.952823 -472.317442 
L 410.121389 -473.416731 
L 398.289955 -471.198567 
L 386.458521 -471.757915 
L 374.627087 -471.308522 
L 362.795653 -465.648048 
L 350.964219 -468.750521 
L 339.132786 -461.30113 
L 327.301352 -467.839704 
L 315.469918 -463.904858 
L 303.638484 -461.071625 
L 291.80705 -459.145463 
L 279.975616 -456.732337 
L 268.144182 -444.74695 
L 256.312748 -444.465302 
L 244.481315 -424.092976 
L 232.649881 -410.603092 
L 220.818447 -342.017107 
L 208.987013 -97.835295 
z
" id="m2024e90a7f" style="stroke:#a9678f;stroke-opacity:0.2;"/>
    </defs>
    <g clip-path="url(#p4eb4327ef0)">
     <use style="fill:#a9678f;fill-opacity:0.2;stroke:#a9678f;stroke-opacity:0.2;" x="0" xlink:href="#m2024e90a7f" y="576"/>
    </g>
   </g>
   <g id="PolyCollection_3">
    <defs>
     <path d="M 208.987013 -104.229577 
L 208.987013 -84.206842 
L 220.818447 -242.53173 
L 232.649881 -298.25009 
L 244.481315 -311.547012 
L 256.312748 -319.473231 
L 268.144182 -333.733642 
L 279.975616 -331.465595 
L 291.80705 -335.469876 
L 303.638484 -339.408569 
L 315.469918 -334.585165 
L 327.301352 -340.921843 
L 339.132786 -344.469469 
L 350.964219 -336.395461 
L 362.795653 -341.43957 
L 374.627087 -336.526169 
L 386.458521 -343.807851 
L 398.289955 -343.712193 
L 410.121389 -341.006249 
L 421.952823 -342.72841 
L 433.784257 -334.046378 
L 445.61569 -340.480824 
L 457.447124 -347.47483 
L 469.278558 -345.185973 
L 481.109992 -341.717353 
L 492.941426 -344.535291 
L 504.77286 -340.173207 
L 516.604294 -348.640314 
L 528.435728 -347.888115 
L 540.267161 -345.716616 
L 552.098595 -346.918139 
L 563.930029 -347.016341 
L 575.761463 -350.431129 
L 587.592897 -350.85903 
L 599.424331 -347.109138 
L 611.255765 -351.876215 
L 623.087199 -346.916112 
L 634.918632 -340.441195 
L 646.750066 -350.564324 
L 658.5815 -352.667372 
L 670.412934 -345.882945 
L 682.244368 -344.612071 
L 694.075802 -347.396299 
L 705.907236 -352.060215 
L 717.738669 -352.698682 
L 729.570103 -350.597664 
L 741.401537 -352.831292 
L 753.232971 -352.079617 
L 765.064405 -351.256362 
L 776.895839 -355.949313 
L 788.727273 -347.410428 
L 788.727273 -372.442692 
L 788.727273 -372.442692 
L 776.895839 -369.54659 
L 765.064405 -369.813834 
L 753.232971 -373.85885 
L 741.401537 -368.681468 
L 729.570103 -372.574728 
L 717.738669 -372.022717 
L 705.907236 -371.112185 
L 694.075802 -368.805618 
L 682.244368 -368.159917 
L 670.412934 -369.212546 
L 658.5815 -373.049804 
L 646.750066 -371.944213 
L 634.918632 -367.794446 
L 623.087199 -369.507088 
L 611.255765 -369.083332 
L 599.424331 -376.948399 
L 587.592897 -370.985653 
L 575.761463 -370.52841 
L 563.930029 -370.955841 
L 552.098595 -373.045622 
L 540.267161 -367.055381 
L 528.435728 -369.862793 
L 516.604294 -369.553167 
L 504.77286 -367.841143 
L 492.941426 -369.011201 
L 481.109992 -374.927137 
L 469.278558 -363.492232 
L 457.447124 -370.165437 
L 445.61569 -369.635739 
L 433.784257 -371.201915 
L 421.952823 -362.519899 
L 410.121389 -364.684624 
L 398.289955 -364.191533 
L 386.458521 -367.63642 
L 374.627087 -361.419709 
L 362.795653 -366.242858 
L 350.964219 -362.324921 
L 339.132786 -370.736663 
L 327.301352 -366.096739 
L 315.469918 -364.245858 
L 303.638484 -358.869224 
L 291.80705 -356.83322 
L 279.975616 -363.603567 
L 268.144182 -358.12689 
L 256.312748 -351.475836 
L 244.481315 -336.720343 
L 232.649881 -322.024644 
L 220.818447 -311.357407 
L 208.987013 -104.229577 
z
" id="m4be2b2e3d6" style="stroke:#2d1e3e;stroke-opacity:0.2;"/>
    </defs>
    <g clip-path="url(#p4eb4327ef0)">
     <use style="fill:#2d1e3e;fill-opacity:0.2;stroke:#2d1e3e;stroke-opacity:0.2;" x="0" xlink:href="#m4be2b2e3d6" y="576"/>
    </g>
   </g>
   <g id="line2d_13">
    <path clip-path="url(#p4eb4327ef0)" d="M 208.987013 484.990428 
L 220.818447 235.933798 
L 232.649881 176.90594 
L 244.481315 149.245271 
L 256.312748 134.751088 
L 268.144182 121.750579 
L 279.975616 115.6099 
L 291.80705 112.899154 
L 303.638484 113.563012 
L 315.469918 110.188412 
L 327.301352 109.137306 
L 339.132786 108.473452 
L 350.964219 103.439203 
L 362.795653 103.383891 
L 374.627087 102.885998 
L 386.458521 102.554071 
L 398.289955 102.498742 
L 410.121389 101.22635 
L 421.952823 98.958189 
L 433.784257 99.953966 
L 445.61569 98.349646 
L 457.447124 100.451854 
L 469.278558 101.392328 
L 481.109992 98.736898 
L 492.941426 98.239005 
L 504.77286 96.302763 
L 516.604294 95.915515 
L 528.435728 96.468724 
L 540.267161 96.966609 
L 552.098595 96.966617 
L 563.930029 96.966613 
L 575.761463 95.915511 
L 587.592897 96.966613 
L 599.424331 97.353869 
L 611.255765 95.528255 
L 623.087199 95.196328 
L 634.918632 95.694221 
L 646.750066 97.575147 
L 658.5815 94.421828 
L 670.412934 96.192118 
L 682.244368 94.975038 
L 694.075802 95.915507 
L 705.907236 95.141007 
L 717.738669 95.74955 
L 729.570103 94.311196 
L 741.401537 96.74534 
L 753.232971 95.362294 
L 765.064405 94.532469 
L 776.895839 95.417614 
L 788.727273 95.417614 
" style="fill:none;stroke:#edd1cb;stroke-linecap:round;stroke-width:1.5;"/>
   </g>
   <g id="line2d_14">
    <path clip-path="url(#p4eb4327ef0)" d="M 208.987013 485.322353 
L 220.818447 254.687726 
L 232.649881 182.769988 
L 244.481315 164.569278 
L 256.312748 147.972878 
L 268.144182 138.900183 
L 279.975616 129.882805 
L 291.80705 127.2827 
L 303.638484 123.686817 
L 315.469918 121.086712 
L 327.301352 120.75479 
L 339.132786 122.580387 
L 350.964219 119.205795 
L 362.795653 117.878069 
L 374.627087 112.124654 
L 386.458521 113.894939 
L 398.289955 113.950264 
L 410.121389 111.405488 
L 421.952823 112.622556 
L 433.784257 111.848048 
L 445.61569 112.511906 
L 457.447124 110.686301 
L 469.278558 109.413917 
L 481.109992 108.086204 
L 492.941426 106.979773 
L 504.77286 108.473456 
L 516.604294 110.077771 
L 528.435728 107.035094 
L 540.267161 109.026669 
L 552.098595 105.43077 
L 563.930029 109.358584 
L 575.761463 108.141516 
L 587.592897 107.864914 
L 599.424331 108.750058 
L 611.255765 112.014013 
L 623.087199 110.077771 
L 634.918632 109.911805 
L 646.750066 110.686301 
L 658.5815 108.030879 
L 670.412934 107.367021 
L 682.244368 105.264808 
L 694.075802 106.758483 
L 705.907236 107.864918 
L 717.738669 110.686305 
L 729.570103 106.592513 
L 741.401537 107.145739 
L 753.232971 108.0862 
L 765.064405 106.481884 
L 776.895839 107.920238 
L 788.727273 105.596744 
" style="fill:none;stroke:#a9678f;stroke-linecap:round;stroke-width:1.5;"/>
   </g>
   <g id="line2d_15">
    <path clip-path="url(#p4eb4327ef0)" d="M 208.987013 481.781791 
L 220.818447 299.055432 
L 232.649881 265.862633 
L 244.481315 251.866322 
L 256.312748 240.525466 
L 268.144182 230.069734 
L 279.975616 228.465419 
L 291.80705 229.848452 
L 303.638484 226.861104 
L 315.469918 226.584488 
L 327.301352 222.490709 
L 339.132786 218.396934 
L 350.964219 226.639809 
L 362.795653 222.158786 
L 374.627087 227.027061 
L 386.458521 220.277864 
L 398.289955 222.048137 
L 410.121389 223.154563 
L 421.952823 223.375845 
L 433.784257 223.375854 
L 445.61569 220.941719 
L 457.447124 217.179866 
L 469.278558 221.660898 
L 481.109992 217.677755 
L 492.941426 219.226754 
L 504.77286 221.992825 
L 516.604294 216.90326 
L 528.435728 217.124546 
L 540.267161 219.614002 
L 552.098595 216.018119 
L 563.930029 217.013909 
L 575.761463 215.520231 
L 587.592897 215.077658 
L 599.424331 213.971232 
L 611.255765 215.520227 
L 623.087199 217.7884 
L 634.918632 221.88218 
L 646.750066 214.745731 
L 658.5815 213.141412 
L 670.412934 218.452255 
L 682.244368 219.614006 
L 694.075802 217.899041 
L 705.907236 214.4138 
L 717.738669 213.6393 
L 729.570103 214.413804 
L 741.401537 215.24362 
L 753.232971 213.030767 
L 765.064405 215.464902 
L 776.895839 213.252049 
L 788.727273 216.07344 
" style="fill:none;stroke:#2d1e3e;stroke-linecap:round;stroke-width:1.5;"/>
   </g>
   <g id="line2d_16"/>
   <g id="line2d_17"/>
   <g id="line2d_18"/>
   <g id="patch_3">
    <path d="M 180 512.64 
L 180 69.12 
" style="fill:none;stroke:#ffffff;stroke-linecap:square;stroke-linejoin:miter;stroke-width:0.8;"/>
   </g>
   <g id="patch_4">
    <path d="M 817.714286 512.64 
L 817.714286 69.12 
" style="fill:none;stroke:#ffffff;stroke-linecap:square;stroke-linejoin:miter;stroke-width:0.8;"/>
   </g>
   <g id="patch_5">
    <path d="M 180 512.64 
L 817.714286 512.64 
" style="fill:none;stroke:#ffffff;stroke-linecap:square;stroke-linejoin:miter;stroke-width:0.8;"/>
   </g>
   <g id="patch_6">
    <path d="M 180 69.12 
L 817.714286 69.12 
" style="fill:none;stroke:#ffffff;stroke-linecap:square;stroke-linejoin:miter;stroke-width:0.8;"/>
   </g>
   <g id="text_15">
    <!-- Evolution of the test accuracy -->
    <g style="fill:#262626;" transform="translate(401.545033 63.12)scale(0.13 -0.13)">
     <defs>
      <path d="M 2.984375 54.6875 
L 12.5 54.6875 
L 29.59375 8.796875 
L 46.6875 54.6875 
L 56.203125 54.6875 
L 35.6875 0 
L 23.484375 0 
z
" id="DejaVuSans-118"/>
      <path d="M 9.421875 75.984375 
L 18.40625 75.984375 
L 18.40625 0 
L 9.421875 0 
z
" id="DejaVuSans-108"/>
      <path d="M 18.3125 70.21875 
L 18.3125 54.6875 
L 36.8125 54.6875 
L 36.8125 47.703125 
L 18.3125 47.703125 
L 18.3125 18.015625 
Q 18.3125 11.328125 20.140625 9.421875 
Q 21.96875 7.515625 27.59375 7.515625 
L 36.8125 7.515625 
L 36.8125 0 
L 27.59375 0 
Q 17.1875 0 13.234375 3.875 
Q 9.28125 7.765625 9.28125 18.015625 
L 9.28125 47.703125 
L 2.6875 47.703125 
L 2.6875 54.6875 
L 9.28125 54.6875 
L 9.28125 70.21875 
z
" id="DejaVuSans-116"/>
      <path d="M 9.421875 54.6875 
L 18.40625 54.6875 
L 18.40625 0 
L 9.421875 0 
z
M 9.421875 75.984375 
L 18.40625 75.984375 
L 18.40625 64.59375 
L 9.421875 64.59375 
z
" id="DejaVuSans-105"/>
      <path d="M 54.890625 33.015625 
L 54.890625 0 
L 45.90625 0 
L 45.90625 32.71875 
Q 45.90625 40.484375 42.875 44.328125 
Q 39.84375 48.1875 33.796875 48.1875 
Q 26.515625 48.1875 22.3125 43.546875 
Q 18.109375 38.921875 18.109375 30.90625 
L 18.109375 0 
L 9.078125 0 
L 9.078125 54.6875 
L 18.109375 54.6875 
L 18.109375 46.1875 
Q 21.34375 51.125 25.703125 53.5625 
Q 30.078125 56 35.796875 56 
Q 45.21875 56 50.046875 50.171875 
Q 54.890625 44.34375 54.890625 33.015625 
z
" id="DejaVuSans-110"/>
      <path id="DejaVuSans-32"/>
      <path d="M 37.109375 75.984375 
L 37.109375 68.5 
L 28.515625 68.5 
Q 23.6875 68.5 21.796875 66.546875 
Q 19.921875 64.59375 19.921875 59.515625 
L 19.921875 54.6875 
L 34.71875 54.6875 
L 34.71875 47.703125 
L 19.921875 47.703125 
L 19.921875 0 
L 10.890625 0 
L 10.890625 47.703125 
L 2.296875 47.703125 
L 2.296875 54.6875 
L 10.890625 54.6875 
L 10.890625 58.5 
Q 10.890625 67.625 15.140625 71.796875 
Q 19.390625 75.984375 28.609375 75.984375 
z
" id="DejaVuSans-102"/>
      <path d="M 56.203125 29.59375 
L 56.203125 25.203125 
L 14.890625 25.203125 
Q 15.484375 15.921875 20.484375 11.0625 
Q 25.484375 6.203125 34.421875 6.203125 
Q 39.59375 6.203125 44.453125 7.46875 
Q 49.3125 8.734375 54.109375 11.28125 
L 54.109375 2.78125 
Q 49.265625 0.734375 44.1875 -0.34375 
Q 39.109375 -1.421875 33.890625 -1.421875 
Q 20.796875 -1.421875 13.15625 6.1875 
Q 5.515625 13.8125 5.515625 26.8125 
Q 5.515625 40.234375 12.765625 48.109375 
Q 20.015625 56 32.328125 56 
Q 43.359375 56 49.78125 48.890625 
Q 56.203125 41.796875 56.203125 29.59375 
z
M 47.21875 32.234375 
Q 47.125 39.59375 43.09375 43.984375 
Q 39.0625 48.390625 32.421875 48.390625 
Q 24.90625 48.390625 20.390625 44.140625 
Q 15.875 39.890625 15.1875 32.171875 
z
" id="DejaVuSans-101"/>
     </defs>
     <use xlink:href="#DejaVuSans-69"/>
     <use x="63.183594" xlink:href="#DejaVuSans-118"/>
     <use x="122.363281" xlink:href="#DejaVuSans-111"/>
     <use x="183.544922" xlink:href="#DejaVuSans-108"/>
     <use x="211.328125" xlink:href="#DejaVuSans-117"/>
     <use x="274.707031" xlink:href="#DejaVuSans-116"/>
     <use x="313.916016" xlink:href="#DejaVuSans-105"/>
     <use x="341.699219" xlink:href="#DejaVuSans-111"/>
     <use x="402.880859" xlink:href="#DejaVuSans-110"/>
     <use x="466.259766" xlink:href="#DejaVuSans-32"/>
     <use x="498.046875" xlink:href="#DejaVuSans-111"/>
     <use x="559.228516" xlink:href="#DejaVuSans-102"/>
     <use x="594.433594" xlink:href="#DejaVuSans-32"/>
     <use x="626.220703" xlink:href="#DejaVuSans-116"/>
     <use x="665.429688" xlink:href="#DejaVuSans-104"/>
     <use x="728.808594" xlink:href="#DejaVuSans-101"/>
     <use x="790.332031" xlink:href="#DejaVuSans-32"/>
     <use x="822.119141" xlink:href="#DejaVuSans-116"/>
     <use x="861.328125" xlink:href="#DejaVuSans-101"/>
     <use x="922.851562" xlink:href="#DejaVuSans-115"/>
     <use x="974.951172" xlink:href="#DejaVuSans-116"/>
     <use x="1014.160156" xlink:href="#DejaVuSans-32"/>
     <use x="1045.947266" xlink:href="#DejaVuSans-97"/>
     <use x="1107.226562" xlink:href="#DejaVuSans-99"/>
     <use x="1162.207031" xlink:href="#DejaVuSans-99"/>
     <use x="1217.1875" xlink:href="#DejaVuSans-117"/>
     <use x="1280.566406" xlink:href="#DejaVuSans-114"/>
     <use x="1321.679688" xlink:href="#DejaVuSans-97"/>
     <use x="1382.958984" xlink:href="#DejaVuSans-99"/>
     <use x="1437.939453" xlink:href="#DejaVuSans-121"/>
    </g>
   </g>
   <g id="legend_1">
    <g id="patch_7">
     <path d="M 709.107411 506.14 
L 808.614286 506.14 
Q 811.214286 506.14 811.214286 503.54 
L 811.214286 447.23375 
Q 811.214286 444.63375 808.614286 444.63375 
L 709.107411 444.63375 
Q 706.507411 444.63375 706.507411 447.23375 
L 706.507411 503.54 
Q 706.507411 506.14 709.107411 506.14 
z
" style="fill:#eaeaf2;opacity:0.8;stroke:#cccccc;stroke-linejoin:miter;"/>
    </g>
    <g id="line2d_19">
     <path d="M 711.707411 455.161719 
L 737.707411 455.161719 
" style="fill:none;stroke:#edd1cb;stroke-linecap:round;stroke-width:1.5;"/>
    </g>
    <g id="line2d_20"/>
    <g id="text_16">
     <!-- oO_Net -->
     <g style="fill:#262626;" transform="translate(748.107411 459.711719)scale(0.13 -0.13)">
      <defs>
       <path d="M 39.40625 66.21875 
Q 28.65625 66.21875 22.328125 58.203125 
Q 16.015625 50.203125 16.015625 36.375 
Q 16.015625 22.609375 22.328125 14.59375 
Q 28.65625 6.59375 39.40625 6.59375 
Q 50.140625 6.59375 56.421875 14.59375 
Q 62.703125 22.609375 62.703125 36.375 
Q 62.703125 50.203125 56.421875 58.203125 
Q 50.140625 66.21875 39.40625 66.21875 
z
M 39.40625 74.21875 
Q 54.734375 74.21875 63.90625 63.9375 
Q 73.09375 53.65625 73.09375 36.375 
Q 73.09375 19.140625 63.90625 8.859375 
Q 54.734375 -1.421875 39.40625 -1.421875 
Q 24.03125 -1.421875 14.8125 8.828125 
Q 5.609375 19.09375 5.609375 36.375 
Q 5.609375 53.65625 14.8125 63.9375 
Q 24.03125 74.21875 39.40625 74.21875 
z
" id="DejaVuSans-79"/>
       <path d="M 50.984375 -16.609375 
L 50.984375 -23.578125 
L -0.984375 -23.578125 
L -0.984375 -16.609375 
z
" id="DejaVuSans-95"/>
       <path d="M 9.8125 72.90625 
L 23.09375 72.90625 
L 55.421875 11.921875 
L 55.421875 72.90625 
L 64.984375 72.90625 
L 64.984375 0 
L 51.703125 0 
L 19.390625 60.984375 
L 19.390625 0 
L 9.8125 0 
z
" id="DejaVuSans-78"/>
      </defs>
      <use xlink:href="#DejaVuSans-111"/>
      <use x="61.181641" xlink:href="#DejaVuSans-79"/>
      <use x="139.892578" xlink:href="#DejaVuSans-95"/>
      <use x="189.892578" xlink:href="#DejaVuSans-78"/>
      <use x="264.697266" xlink:href="#DejaVuSans-101"/>
      <use x="326.220703" xlink:href="#DejaVuSans-116"/>
     </g>
    </g>
    <g id="line2d_21">
     <path d="M 711.707411 474.604844 
L 737.707411 474.604844 
" style="fill:none;stroke:#a9678f;stroke-linecap:round;stroke-width:1.5;"/>
    </g>
    <g id="line2d_22"/>
    <g id="text_17">
     <!-- LugiaNet -->
     <g style="fill:#262626;" transform="translate(748.107411 479.154844)scale(0.13 -0.13)">
      <defs>
       <path d="M 9.8125 72.90625 
L 19.671875 72.90625 
L 19.671875 8.296875 
L 55.171875 8.296875 
L 55.171875 0 
L 9.8125 0 
z
" id="DejaVuSans-76"/>
       <path d="M 45.40625 27.984375 
Q 45.40625 37.75 41.375 43.109375 
Q 37.359375 48.484375 30.078125 48.484375 
Q 22.859375 48.484375 18.828125 43.109375 
Q 14.796875 37.75 14.796875 27.984375 
Q 14.796875 18.265625 18.828125 12.890625 
Q 22.859375 7.515625 30.078125 7.515625 
Q 37.359375 7.515625 41.375 12.890625 
Q 45.40625 18.265625 45.40625 27.984375 
z
M 54.390625 6.78125 
Q 54.390625 -7.171875 48.1875 -13.984375 
Q 42 -20.796875 29.203125 -20.796875 
Q 24.46875 -20.796875 20.265625 -20.09375 
Q 16.0625 -19.390625 12.109375 -17.921875 
L 12.109375 -9.1875 
Q 16.0625 -11.328125 19.921875 -12.34375 
Q 23.78125 -13.375 27.78125 -13.375 
Q 36.625 -13.375 41.015625 -8.765625 
Q 45.40625 -4.15625 45.40625 5.171875 
L 45.40625 9.625 
Q 42.625 4.78125 38.28125 2.390625 
Q 33.9375 0 27.875 0 
Q 17.828125 0 11.671875 7.65625 
Q 5.515625 15.328125 5.515625 27.984375 
Q 5.515625 40.671875 11.671875 48.328125 
Q 17.828125 56 27.875 56 
Q 33.9375 56 38.28125 53.609375 
Q 42.625 51.21875 45.40625 46.390625 
L 45.40625 54.6875 
L 54.390625 54.6875 
z
" id="DejaVuSans-103"/>
      </defs>
      <use xlink:href="#DejaVuSans-76"/>
      <use x="53.962891" xlink:href="#DejaVuSans-117"/>
      <use x="117.341797" xlink:href="#DejaVuSans-103"/>
      <use x="180.818359" xlink:href="#DejaVuSans-105"/>
      <use x="208.601562" xlink:href="#DejaVuSans-97"/>
      <use x="269.880859" xlink:href="#DejaVuSans-78"/>
      <use x="344.685547" xlink:href="#DejaVuSans-101"/>
      <use x="406.208984" xlink:href="#DejaVuSans-116"/>
     </g>
    </g>
    <g id="line2d_23">
     <path d="M 711.707411 493.686406 
L 737.707411 493.686406 
" style="fill:none;stroke:#2d1e3e;stroke-linecap:round;stroke-width:1.5;"/>
    </g>
    <g id="line2d_24"/>
    <g id="text_18">
     <!-- BigNaive -->
     <g style="fill:#262626;" transform="translate(748.107411 498.236406)scale(0.13 -0.13)">
      <defs>
       <path d="M 19.671875 34.8125 
L 19.671875 8.109375 
L 35.5 8.109375 
Q 43.453125 8.109375 47.28125 11.40625 
Q 51.125 14.703125 51.125 21.484375 
Q 51.125 28.328125 47.28125 31.5625 
Q 43.453125 34.8125 35.5 34.8125 
z
M 19.671875 64.796875 
L 19.671875 42.828125 
L 34.28125 42.828125 
Q 41.5 42.828125 45.03125 45.53125 
Q 48.578125 48.25 48.578125 53.8125 
Q 48.578125 59.328125 45.03125 62.0625 
Q 41.5 64.796875 34.28125 64.796875 
z
M 9.8125 72.90625 
L 35.015625 72.90625 
Q 46.296875 72.90625 52.390625 68.21875 
Q 58.5 63.53125 58.5 54.890625 
Q 58.5 48.1875 55.375 44.234375 
Q 52.25 40.28125 46.1875 39.3125 
Q 53.46875 37.75 57.5 32.78125 
Q 61.53125 27.828125 61.53125 20.40625 
Q 61.53125 10.640625 54.890625 5.3125 
Q 48.25 0 35.984375 0 
L 9.8125 0 
z
" id="DejaVuSans-66"/>
      </defs>
      <use xlink:href="#DejaVuSans-66"/>
      <use x="68.603516" xlink:href="#DejaVuSans-105"/>
      <use x="96.386719" xlink:href="#DejaVuSans-103"/>
      <use x="159.863281" xlink:href="#DejaVuSans-78"/>
      <use x="234.667969" xlink:href="#DejaVuSans-97"/>
      <use x="295.947266" xlink:href="#DejaVuSans-105"/>
      <use x="323.730469" xlink:href="#DejaVuSans-118"/>
      <use x="382.910156" xlink:href="#DejaVuSans-101"/>
     </g>
    </g>
   </g>
  </g>
  <g id="axes_2">
   <g id="patch_8">
    <path d="M 897.428571 512.64 
L 1296 512.64 
L 1296 69.12 
L 897.428571 69.12 
z
" style="fill:#eaeaf2;"/>
   </g>
   <g id="matplotlib.axis_3">
    <g id="xtick_7">
     <g id="text_19">
      <!-- oO_Net -->
      <g style="fill:#262626;" transform="translate(940.10269 529.288437)scale(0.13 -0.13)">
       <use xlink:href="#DejaVuSans-111"/>
       <use x="61.181641" xlink:href="#DejaVuSans-79"/>
       <use x="139.892578" xlink:href="#DejaVuSans-95"/>
       <use x="189.892578" xlink:href="#DejaVuSans-78"/>
       <use x="264.697266" xlink:href="#DejaVuSans-101"/>
       <use x="326.220703" xlink:href="#DejaVuSans-116"/>
      </g>
     </g>
    </g>
    <g id="xtick_8">
     <g id="text_20">
      <!-- LugiaNet -->
      <g style="fill:#262626;" transform="translate(1067.760848 529.517969)scale(0.13 -0.13)">
       <use xlink:href="#DejaVuSans-76"/>
       <use x="53.962891" xlink:href="#DejaVuSans-117"/>
       <use x="117.341797" xlink:href="#DejaVuSans-103"/>
       <use x="180.818359" xlink:href="#DejaVuSans-105"/>
       <use x="208.601562" xlink:href="#DejaVuSans-97"/>
       <use x="269.880859" xlink:href="#DejaVuSans-78"/>
       <use x="344.685547" xlink:href="#DejaVuSans-101"/>
       <use x="406.208984" xlink:href="#DejaVuSans-116"/>
      </g>
     </g>
    </g>
    <g id="xtick_9">
     <g id="text_21">
      <!-- BigNaive -->
      <g style="fill:#262626;" transform="translate(1200.68096 529.517969)scale(0.13 -0.13)">
       <use xlink:href="#DejaVuSans-66"/>
       <use x="68.603516" xlink:href="#DejaVuSans-105"/>
       <use x="96.386719" xlink:href="#DejaVuSans-103"/>
       <use x="159.863281" xlink:href="#DejaVuSans-78"/>
       <use x="234.667969" xlink:href="#DejaVuSans-97"/>
       <use x="295.947266" xlink:href="#DejaVuSans-105"/>
       <use x="323.730469" xlink:href="#DejaVuSans-118"/>
       <use x="382.910156" xlink:href="#DejaVuSans-101"/>
      </g>
     </g>
    </g>
    <g id="text_22">
     <!-- Architectures -->
     <g style="fill:#262626;" transform="translate(1053.542098 546.231562)scale(0.13 -0.13)">
      <use xlink:href="#DejaVuSans-65"/>
      <use x="68.408203" xlink:href="#DejaVuSans-114"/>
      <use x="107.271484" xlink:href="#DejaVuSans-99"/>
      <use x="162.251953" xlink:href="#DejaVuSans-104"/>
      <use x="225.630859" xlink:href="#DejaVuSans-105"/>
      <use x="253.414062" xlink:href="#DejaVuSans-116"/>
      <use x="292.623047" xlink:href="#DejaVuSans-101"/>
      <use x="354.146484" xlink:href="#DejaVuSans-99"/>
      <use x="409.126953" xlink:href="#DejaVuSans-116"/>
      <use x="448.335938" xlink:href="#DejaVuSans-117"/>
      <use x="511.714844" xlink:href="#DejaVuSans-114"/>
      <use x="550.578125" xlink:href="#DejaVuSans-101"/>
      <use x="612.101562" xlink:href="#DejaVuSans-115"/>
     </g>
    </g>
   </g>
   <g id="matplotlib.axis_4">
    <g id="ytick_7">
     <g id="line2d_25">
      <path clip-path="url(#pe0bc2b5bb2)" d="M 897.428571 466.102403 
L 1296 466.102403 
" style="fill:none;stroke:#ffffff;stroke-linecap:round;stroke-width:0.8;"/>
     </g>
     <g id="text_23">
      <!-- 80 -->
      <g style="fill:#262626;" transform="translate(877.703571 469.901622)scale(0.1 -0.1)">
       <use xlink:href="#DejaVuSans-56"/>
       <use x="63.623047" xlink:href="#DejaVuSans-48"/>
      </g>
     </g>
    </g>
    <g id="ytick_8">
     <g id="line2d_26">
      <path clip-path="url(#pe0bc2b5bb2)" d="M 897.428571 371.896802 
L 1296 371.896802 
" style="fill:none;stroke:#ffffff;stroke-linecap:round;stroke-width:0.8;"/>
     </g>
     <g id="text_24">
      <!-- 85 -->
      <g style="fill:#262626;" transform="translate(877.703571 375.696021)scale(0.1 -0.1)">
       <use xlink:href="#DejaVuSans-56"/>
       <use x="63.623047" xlink:href="#DejaVuSans-53"/>
      </g>
     </g>
    </g>
    <g id="ytick_9">
     <g id="line2d_27">
      <path clip-path="url(#pe0bc2b5bb2)" d="M 897.428571 277.691202 
L 1296 277.691202 
" style="fill:none;stroke:#ffffff;stroke-linecap:round;stroke-width:0.8;"/>
     </g>
     <g id="text_25">
      <!-- 90 -->
      <g style="fill:#262626;" transform="translate(877.703571 281.49042)scale(0.1 -0.1)">
       <use xlink:href="#DejaVuSans-57"/>
       <use x="63.623047" xlink:href="#DejaVuSans-48"/>
      </g>
     </g>
    </g>
    <g id="ytick_10">
     <g id="line2d_28">
      <path clip-path="url(#pe0bc2b5bb2)" d="M 897.428571 183.485601 
L 1296 183.485601 
" style="fill:none;stroke:#ffffff;stroke-linecap:round;stroke-width:0.8;"/>
     </g>
     <g id="text_26">
      <!-- 95 -->
      <g style="fill:#262626;" transform="translate(877.703571 187.28482)scale(0.1 -0.1)">
       <use xlink:href="#DejaVuSans-57"/>
       <use x="63.623047" xlink:href="#DejaVuSans-53"/>
      </g>
     </g>
    </g>
    <g id="ytick_11">
     <g id="line2d_29">
      <path clip-path="url(#pe0bc2b5bb2)" d="M 897.428571 89.28 
L 1296 89.28 
" style="fill:none;stroke:#ffffff;stroke-linecap:round;stroke-width:0.8;"/>
     </g>
     <g id="text_27">
      <!-- 100 -->
      <g style="fill:#262626;" transform="translate(871.341071 93.079219)scale(0.1 -0.1)">
       <use xlink:href="#DejaVuSans-49"/>
       <use x="63.623047" xlink:href="#DejaVuSans-48"/>
       <use x="127.246094" xlink:href="#DejaVuSans-48"/>
      </g>
     </g>
    </g>
    <g id="text_28">
     <!-- Accuracy -->
     <g style="fill:#262626;" transform="translate(864.637478 320.556562)rotate(-90)scale(0.13 -0.13)">
      <use xlink:href="#DejaVuSans-65"/>
      <use x="66.658203" xlink:href="#DejaVuSans-99"/>
      <use x="121.638672" xlink:href="#DejaVuSans-99"/>
      <use x="176.619141" xlink:href="#DejaVuSans-117"/>
      <use x="239.998047" xlink:href="#DejaVuSans-114"/>
      <use x="281.111328" xlink:href="#DejaVuSans-97"/>
      <use x="342.390625" xlink:href="#DejaVuSans-99"/>
      <use x="397.371094" xlink:href="#DejaVuSans-121"/>
     </g>
    </g>
   </g>
   <g id="patch_9">
    <path clip-path="url(#pe0bc2b5bb2)" d="M 911.245714 91.164083 
L 963.325714 91.164083 
L 963.325714 89.28 
L 911.245714 89.28 
L 911.245714 91.164083 
z
" style="fill:#3274a1;stroke:#3f3f3f;stroke-linejoin:miter;stroke-width:1.5;"/>
   </g>
   <g id="patch_10">
    <path clip-path="url(#pe0bc2b5bb2)" d="M 964.388571 153.339837 
L 1016.468571 153.339837 
L 1016.468571 138.266884 
L 964.388571 138.266884 
L 964.388571 153.339837 
z
" style="fill:#e1812c;stroke:#3f3f3f;stroke-linejoin:miter;stroke-width:1.5;"/>
   </g>
   <g id="patch_11">
    <path clip-path="url(#pe0bc2b5bb2)" d="M 1044.102857 91.164083 
L 1096.182857 91.164083 
L 1096.182857 89.28 
L 1044.102857 89.28 
L 1044.102857 91.164083 
z
" style="fill:#3274a1;stroke:#3f3f3f;stroke-linejoin:miter;stroke-width:1.5;"/>
   </g>
   <g id="patch_12">
    <path clip-path="url(#pe0bc2b5bb2)" d="M 1097.245714 185.369684 
L 1149.325714 185.369684 
L 1149.325714 158.050045 
L 1097.245714 158.050045 
L 1097.245714 185.369684 
z
" style="fill:#e1812c;stroke:#3f3f3f;stroke-linejoin:miter;stroke-width:1.5;"/>
   </g>
   <g id="patch_13">
    <path clip-path="url(#pe0bc2b5bb2)" d="M 1176.96 95.874435 
L 1229.04 95.874435 
L 1229.04 90.222042 
L 1176.96 90.222042 
L 1176.96 95.874435 
z
" style="fill:#3274a1;stroke:#3f3f3f;stroke-linejoin:miter;stroke-width:1.5;"/>
   </g>
   <g id="patch_14">
    <path clip-path="url(#pe0bc2b5bb2)" d="M 1230.102857 432.188401 
L 1282.182857 432.188401 
L 1282.182857 403.926721 
L 1230.102857 403.926721 
L 1230.102857 432.188401 
z
" style="fill:#e1812c;stroke:#3f3f3f;stroke-linejoin:miter;stroke-width:1.5;"/>
   </g>
   <g id="patch_15">
    <path clip-path="url(#pe0bc2b5bb2)" d="M 963.857143 1973.392015 
L 963.857143 1973.392015 
L 963.857143 1973.392015 
L 963.857143 1973.392015 
z
" style="fill:#3274a1;stroke:#3f3f3f;stroke-linejoin:miter;stroke-width:0.75;"/>
   </g>
   <g id="patch_16">
    <path clip-path="url(#pe0bc2b5bb2)" d="M 963.857143 1973.392015 
L 963.857143 1973.392015 
L 963.857143 1973.392015 
L 963.857143 1973.392015 
z
" style="fill:#e1812c;stroke:#3f3f3f;stroke-linejoin:miter;stroke-width:0.75;"/>
   </g>
   <g id="line2d_30">
    <path clip-path="url(#pe0bc2b5bb2)" d="M 937.285714 91.164083 
L 937.285714 93.048167 
" style="fill:none;stroke:#3f3f3f;stroke-linecap:round;stroke-width:1.5;"/>
   </g>
   <g id="line2d_31">
    <path clip-path="url(#pe0bc2b5bb2)" d="M 937.285714 89.28 
L 937.285714 89.28 
" style="fill:none;stroke:#3f3f3f;stroke-linecap:round;stroke-width:1.5;"/>
   </g>
   <g id="line2d_32">
    <path clip-path="url(#pe0bc2b5bb2)" d="M 924.265714 93.048167 
L 950.305714 93.048167 
" style="fill:none;stroke:#3f3f3f;stroke-linecap:round;stroke-width:1.5;"/>
   </g>
   <g id="line2d_33">
    <path clip-path="url(#pe0bc2b5bb2)" d="M 924.265714 89.28 
L 950.305714 89.28 
" style="fill:none;stroke:#3f3f3f;stroke-linecap:round;stroke-width:1.5;"/>
   </g>
   <g id="line2d_34"/>
   <g id="line2d_35">
    <path clip-path="url(#pe0bc2b5bb2)" d="M 990.428571 153.339837 
L 990.428571 166.528564 
" style="fill:none;stroke:#3f3f3f;stroke-linecap:round;stroke-width:1.5;"/>
   </g>
   <g id="line2d_36">
    <path clip-path="url(#pe0bc2b5bb2)" d="M 990.428571 138.266884 
L 990.428571 123.194074 
" style="fill:none;stroke:#3f3f3f;stroke-linecap:round;stroke-width:1.5;"/>
   </g>
   <g id="line2d_37">
    <path clip-path="url(#pe0bc2b5bb2)" d="M 977.408571 166.528564 
L 1003.448571 166.528564 
" style="fill:none;stroke:#3f3f3f;stroke-linecap:round;stroke-width:1.5;"/>
   </g>
   <g id="line2d_38">
    <path clip-path="url(#pe0bc2b5bb2)" d="M 977.408571 123.194074 
L 1003.448571 123.194074 
" style="fill:none;stroke:#3f3f3f;stroke-linecap:round;stroke-width:1.5;"/>
   </g>
   <g id="line2d_39"/>
   <g id="line2d_40">
    <path clip-path="url(#pe0bc2b5bb2)" d="M 1070.142857 91.164083 
L 1070.142857 93.048167 
" style="fill:none;stroke:#3f3f3f;stroke-linecap:round;stroke-width:1.5;"/>
   </g>
   <g id="line2d_41">
    <path clip-path="url(#pe0bc2b5bb2)" d="M 1070.142857 89.28 
L 1070.142857 89.28 
" style="fill:none;stroke:#3f3f3f;stroke-linecap:round;stroke-width:1.5;"/>
   </g>
   <g id="line2d_42">
    <path clip-path="url(#pe0bc2b5bb2)" d="M 1057.122857 93.048167 
L 1083.162857 93.048167 
" style="fill:none;stroke:#3f3f3f;stroke-linecap:round;stroke-width:1.5;"/>
   </g>
   <g id="line2d_43">
    <path clip-path="url(#pe0bc2b5bb2)" d="M 1057.122857 89.28 
L 1083.162857 89.28 
" style="fill:none;stroke:#3f3f3f;stroke-linecap:round;stroke-width:1.5;"/>
   </g>
   <g id="line2d_44"/>
   <g id="line2d_45">
    <path clip-path="url(#pe0bc2b5bb2)" d="M 1123.285714 185.369684 
L 1123.285714 194.790244 
" style="fill:none;stroke:#3f3f3f;stroke-linecap:round;stroke-width:1.5;"/>
   </g>
   <g id="line2d_46">
    <path clip-path="url(#pe0bc2b5bb2)" d="M 1123.285714 158.050045 
L 1123.285714 138.266884 
" style="fill:none;stroke:#3f3f3f;stroke-linecap:round;stroke-width:1.5;"/>
   </g>
   <g id="line2d_47">
    <path clip-path="url(#pe0bc2b5bb2)" d="M 1110.265714 194.790244 
L 1136.305714 194.790244 
" style="fill:none;stroke:#3f3f3f;stroke-linecap:round;stroke-width:1.5;"/>
   </g>
   <g id="line2d_48">
    <path clip-path="url(#pe0bc2b5bb2)" d="M 1110.265714 138.266884 
L 1136.305714 138.266884 
" style="fill:none;stroke:#3f3f3f;stroke-linecap:round;stroke-width:1.5;"/>
   </g>
   <g id="line2d_49"/>
   <g id="line2d_50">
    <path clip-path="url(#pe0bc2b5bb2)" d="M 1203 95.874435 
L 1203 102.468727 
" style="fill:none;stroke:#3f3f3f;stroke-linecap:round;stroke-width:1.5;"/>
   </g>
   <g id="line2d_51">
    <path clip-path="url(#pe0bc2b5bb2)" d="M 1203 90.222042 
L 1203 89.28 
" style="fill:none;stroke:#3f3f3f;stroke-linecap:round;stroke-width:1.5;"/>
   </g>
   <g id="line2d_52">
    <path clip-path="url(#pe0bc2b5bb2)" d="M 1189.98 102.468727 
L 1216.02 102.468727 
" style="fill:none;stroke:#3f3f3f;stroke-linecap:round;stroke-width:1.5;"/>
   </g>
   <g id="line2d_53">
    <path clip-path="url(#pe0bc2b5bb2)" d="M 1189.98 89.28 
L 1216.02 89.28 
" style="fill:none;stroke:#3f3f3f;stroke-linecap:round;stroke-width:1.5;"/>
   </g>
   <g id="line2d_54">
    <defs>
     <path d="M -0 3.535534 
L 2.12132 0 
L -0 -3.535534 
L -2.12132 -0 
z
" id="m12ddc5a8f6" style="stroke:#3f3f3f;stroke-linejoin:miter;"/>
    </defs>
    <g clip-path="url(#pe0bc2b5bb2)">
     <use style="fill:#3f3f3f;stroke:#3f3f3f;stroke-linejoin:miter;" x="1203" xlink:href="#m12ddc5a8f6" y="113.773514"/>
    </g>
   </g>
   <g id="line2d_55">
    <path clip-path="url(#pe0bc2b5bb2)" d="M 1256.142857 432.188401 
L 1256.142857 456.681843 
" style="fill:none;stroke:#3f3f3f;stroke-linecap:round;stroke-width:1.5;"/>
   </g>
   <g id="line2d_56">
    <path clip-path="url(#pe0bc2b5bb2)" d="M 1256.142857 403.926721 
L 1256.142857 381.317362 
" style="fill:none;stroke:#3f3f3f;stroke-linecap:round;stroke-width:1.5;"/>
   </g>
   <g id="line2d_57">
    <path clip-path="url(#pe0bc2b5bb2)" d="M 1243.122857 456.681843 
L 1269.162857 456.681843 
" style="fill:none;stroke:#3f3f3f;stroke-linecap:round;stroke-width:1.5;"/>
   </g>
   <g id="line2d_58">
    <path clip-path="url(#pe0bc2b5bb2)" d="M 1243.122857 381.317362 
L 1269.162857 381.317362 
" style="fill:none;stroke:#3f3f3f;stroke-linecap:round;stroke-width:1.5;"/>
   </g>
   <g id="line2d_59">
    <g clip-path="url(#pe0bc2b5bb2)">
     <use style="fill:#3f3f3f;stroke:#3f3f3f;stroke-linejoin:miter;" x="1256.142857" xlink:href="#m12ddc5a8f6" y="492.48"/>
    </g>
   </g>
   <g id="line2d_60">
    <path clip-path="url(#pe0bc2b5bb2)" d="M 911.245714 91.164083 
L 963.325714 91.164083 
" style="fill:none;stroke:#3f3f3f;stroke-linecap:round;stroke-width:1.5;"/>
   </g>
   <g id="line2d_61">
    <path clip-path="url(#pe0bc2b5bb2)" d="M 964.388571 147.687444 
L 1016.468571 147.687444 
" style="fill:none;stroke:#3f3f3f;stroke-linecap:round;stroke-width:1.5;"/>
   </g>
   <g id="line2d_62">
    <path clip-path="url(#pe0bc2b5bb2)" d="M 1044.102857 89.28 
L 1096.182857 89.28 
" style="fill:none;stroke:#3f3f3f;stroke-linecap:round;stroke-width:1.5;"/>
   </g>
   <g id="line2d_63">
    <path clip-path="url(#pe0bc2b5bb2)" d="M 1097.245714 166.528564 
L 1149.325714 166.528564 
" style="fill:none;stroke:#3f3f3f;stroke-linecap:round;stroke-width:1.5;"/>
   </g>
   <g id="line2d_64">
    <path clip-path="url(#pe0bc2b5bb2)" d="M 1176.96 93.048167 
L 1229.04 93.048167 
" style="fill:none;stroke:#3f3f3f;stroke-linecap:round;stroke-width:1.5;"/>
   </g>
   <g id="line2d_65">
    <path clip-path="url(#pe0bc2b5bb2)" d="M 1230.102857 417.115519 
L 1282.182857 417.115519 
" style="fill:none;stroke:#3f3f3f;stroke-linecap:round;stroke-width:1.5;"/>
   </g>
   <g id="patch_17">
    <path d="M 897.428571 512.64 
L 897.428571 69.12 
" style="fill:none;stroke:#ffffff;stroke-linecap:square;stroke-linejoin:miter;stroke-width:0.8;"/>
   </g>
   <g id="patch_18">
    <path d="M 1296 512.64 
L 1296 69.12 
" style="fill:none;stroke:#ffffff;stroke-linecap:square;stroke-linejoin:miter;stroke-width:0.8;"/>
   </g>
   <g id="patch_19">
    <path d="M 897.428571 512.64 
L 1296 512.64 
" style="fill:none;stroke:#ffffff;stroke-linecap:square;stroke-linejoin:miter;stroke-width:0.8;"/>
   </g>
   <g id="patch_20">
    <path d="M 897.428571 69.12 
L 1296 69.12 
" style="fill:none;stroke:#ffffff;stroke-linecap:square;stroke-linejoin:miter;stroke-width:0.8;"/>
   </g>
   <g id="text_29">
    <!-- Results (epochs = 100) -->
    <g style="fill:#262626;" transform="translate(1020.93952 63.12)scale(0.13 -0.13)">
     <defs>
      <path d="M 44.390625 34.1875 
Q 47.5625 33.109375 50.5625 29.59375 
Q 53.5625 26.078125 56.59375 19.921875 
L 66.609375 0 
L 56 0 
L 46.6875 18.703125 
Q 43.0625 26.03125 39.671875 28.421875 
Q 36.28125 30.8125 30.421875 30.8125 
L 19.671875 30.8125 
L 19.671875 0 
L 9.8125 0 
L 9.8125 72.90625 
L 32.078125 72.90625 
Q 44.578125 72.90625 50.734375 67.671875 
Q 56.890625 62.453125 56.890625 51.90625 
Q 56.890625 45.015625 53.6875 40.46875 
Q 50.484375 35.9375 44.390625 34.1875 
z
M 19.671875 64.796875 
L 19.671875 38.921875 
L 32.078125 38.921875 
Q 39.203125 38.921875 42.84375 42.21875 
Q 46.484375 45.515625 46.484375 51.90625 
Q 46.484375 58.296875 42.84375 61.546875 
Q 39.203125 64.796875 32.078125 64.796875 
z
" id="DejaVuSans-82"/>
      <path d="M 31 75.875 
Q 24.46875 64.65625 21.28125 53.65625 
Q 18.109375 42.671875 18.109375 31.390625 
Q 18.109375 20.125 21.3125 9.0625 
Q 24.515625 -2 31 -13.1875 
L 23.1875 -13.1875 
Q 15.875 -1.703125 12.234375 9.375 
Q 8.59375 20.453125 8.59375 31.390625 
Q 8.59375 42.28125 12.203125 53.3125 
Q 15.828125 64.359375 23.1875 75.875 
z
" id="DejaVuSans-40"/>
      <path d="M 10.59375 45.40625 
L 73.1875 45.40625 
L 73.1875 37.203125 
L 10.59375 37.203125 
z
M 10.59375 25.484375 
L 73.1875 25.484375 
L 73.1875 17.1875 
L 10.59375 17.1875 
z
" id="DejaVuSans-61"/>
      <path d="M 8.015625 75.875 
L 15.828125 75.875 
Q 23.140625 64.359375 26.78125 53.3125 
Q 30.421875 42.28125 30.421875 31.390625 
Q 30.421875 20.453125 26.78125 9.375 
Q 23.140625 -1.703125 15.828125 -13.1875 
L 8.015625 -13.1875 
Q 14.5 -2 17.703125 9.0625 
Q 20.90625 20.125 20.90625 31.390625 
Q 20.90625 42.671875 17.703125 53.65625 
Q 14.5 64.65625 8.015625 75.875 
z
" id="DejaVuSans-41"/>
     </defs>
     <use xlink:href="#DejaVuSans-82"/>
     <use x="64.982422" xlink:href="#DejaVuSans-101"/>
     <use x="126.505859" xlink:href="#DejaVuSans-115"/>
     <use x="178.605469" xlink:href="#DejaVuSans-117"/>
     <use x="241.984375" xlink:href="#DejaVuSans-108"/>
     <use x="269.767578" xlink:href="#DejaVuSans-116"/>
     <use x="308.976562" xlink:href="#DejaVuSans-115"/>
     <use x="361.076172" xlink:href="#DejaVuSans-32"/>
     <use x="392.863281" xlink:href="#DejaVuSans-40"/>
     <use x="431.876953" xlink:href="#DejaVuSans-101"/>
     <use x="493.400391" xlink:href="#DejaVuSans-112"/>
     <use x="556.876953" xlink:href="#DejaVuSans-111"/>
     <use x="618.058594" xlink:href="#DejaVuSans-99"/>
     <use x="673.039062" xlink:href="#DejaVuSans-104"/>
     <use x="736.417969" xlink:href="#DejaVuSans-115"/>
     <use x="788.517578" xlink:href="#DejaVuSans-32"/>
     <use x="820.304688" xlink:href="#DejaVuSans-61"/>
     <use x="904.09375" xlink:href="#DejaVuSans-32"/>
     <use x="935.880859" xlink:href="#DejaVuSans-49"/>
     <use x="999.503906" xlink:href="#DejaVuSans-48"/>
     <use x="1063.126953" xlink:href="#DejaVuSans-48"/>
     <use x="1126.75" xlink:href="#DejaVuSans-41"/>
    </g>
   </g>
   <g id="legend_2">
    <g id="patch_21">
     <path d="M 905.828571 506.64 
L 972.158571 506.64 
Q 974.558571 506.64 974.558571 504.24 
L 974.558571 470.2125 
Q 974.558571 467.8125 972.158571 467.8125 
L 905.828571 467.8125 
Q 903.428571 467.8125 903.428571 470.2125 
L 903.428571 504.24 
Q 903.428571 506.64 905.828571 506.64 
z
" style="fill:#eaeaf2;opacity:0.8;stroke:#cccccc;stroke-linejoin:miter;"/>
    </g>
    <g id="patch_22">
     <path d="M 908.228571 481.730625 
L 932.228571 481.730625 
L 932.228571 473.330625 
L 908.228571 473.330625 
z
" style="fill:#3274a1;stroke:#3f3f3f;stroke-linejoin:miter;stroke-width:0.75;"/>
    </g>
    <g id="text_30">
     <!-- train -->
     <g style="fill:#262626;" transform="translate(941.828571 481.730625)scale(0.12 -0.12)">
      <use xlink:href="#DejaVuSans-116"/>
      <use x="39.208984" xlink:href="#DejaVuSans-114"/>
      <use x="80.322266" xlink:href="#DejaVuSans-97"/>
      <use x="141.601562" xlink:href="#DejaVuSans-105"/>
      <use x="169.384766" xlink:href="#DejaVuSans-110"/>
     </g>
    </g>
    <g id="patch_23">
     <path d="M 908.228571 499.344375 
L 932.228571 499.344375 
L 932.228571 490.944375 
L 908.228571 490.944375 
z
" style="fill:#e1812c;stroke:#3f3f3f;stroke-linejoin:miter;stroke-width:0.75;"/>
    </g>
    <g id="text_31">
     <!-- test -->
     <g style="fill:#262626;" transform="translate(941.828571 499.344375)scale(0.12 -0.12)">
      <use xlink:href="#DejaVuSans-116"/>
      <use x="39.208984" xlink:href="#DejaVuSans-101"/>
      <use x="100.732422" xlink:href="#DejaVuSans-115"/>
      <use x="152.832031" xlink:href="#DejaVuSans-116"/>
     </g>
    </g>
   </g>
  </g>
 </g>
 <defs>
  <clipPath id="p4eb4327ef0">
   <rect height="443.52" width="637.714286" x="180" y="69.12"/>
  </clipPath>
  <clipPath id="pe0bc2b5bb2">
   <rect height="443.52" width="398.571429" x="897.428571" y="69.12"/>
  </clipPath>
 </defs>
</svg>
